<?xml version="1.0" encoding="utf-8"?>
<!-- Generator: Adobe Illustrator 15.1.0, SVG Export Plug-In . SVG Version: 6.00 Build 0)  -->
<!DOCTYPE svg PUBLIC "-//W3C//DTD SVG 1.1//EN" "http://www.w3.org/Graphics/SVG/1.1/DTD/svg11.dtd">
<svg version="1.1" id="Layer_1" xmlns="http://www.w3.org/2000/svg" xmlns:xlink="http://www.w3.org/1999/xlink" x="0px" y="0px"
	 width="136.52px" height="123.753px" viewBox="0 0 136.52 123.753" enable-background="new 0 0 136.52 123.753"
	 xml:space="preserve">
<line fill="none" stroke="#00A091" stroke-width="0.5" stroke-miterlimit="10" x1="27.036" y1="19.017" x2="109.695" y2="101.676"/>
<line fill="none" stroke="#00A091" stroke-width="0.5" stroke-miterlimit="10" x1="109.366" y1="19.017" x2="26.706" y2="101.676"/>
<g>
	<path fill-rule="evenodd" clip-rule="evenodd" fill="none" stroke="#00A091" stroke-width="0.5" stroke-miterlimit="10" d="
		M72.029,95.554c-2.179,4.044-3.993,4.044-6.855,1.715c-2.035-2.917-6.368-12.447-4.712-17.138c1.254-3.556,5.031-2.894,6.855-5.998
		c3.425,1.97,7.924,2.972,8.569,7.283C76.569,85.984,73.334,91.568,72.029,95.554z"/>
	<path fill-rule="evenodd" clip-rule="evenodd" fill="none" stroke="#00A091" stroke-width="0.5" stroke-miterlimit="10" d="
		M72.029,97.269c-1.155,1.784-5.118,2.764-7.283,2.142C65.78,97.582,70.066,96.745,72.029,97.269z"/>
	<path fill-rule="evenodd" clip-rule="evenodd" fill="none" stroke="#00A091" stroke-width="0.5" stroke-miterlimit="10" d="
		M71.172,98.982c0.381,0.19,0.766,0.377,0.857,0.857c-1.333,1.607-5.382,2.499-7.283,2.143
		C65.395,99.488,69.421,100.373,71.172,98.982z"/>
	<path fill-rule="evenodd" clip-rule="evenodd" fill="none" stroke="#00A091" stroke-width="0.5" stroke-miterlimit="10" d="
		M72.029,101.552c-0.458,2.619-5.237,2.939-7.283,2.572C66.036,102.128,69.329,102.138,72.029,101.552z"/>
	<path fill-rule="evenodd" clip-rule="evenodd" fill="none" stroke="#00A091" stroke-width="0.5" stroke-miterlimit="10" d="
		M70.315,104.552c0.608,2.01-2.493,3-2.999,1.285C67.391,104.484,69.011,104.675,70.315,104.552z"/>
	<g>
		<g>
			<path fill="#00A091" d="M69.335,96.531c0.033-1.279,0.237-2.562,0.425-3.826c0.152-1.028,0.233-3.56,1.135-4.282
				c-0.275,0.047-0.551,0.094-0.827,0.141c1.538,1.614-0.982,2.101-1.52,0.729c-0.34-0.868-0.549-2.62,0.132-3.348
				c-0.308,0.052-0.615,0.104-0.923,0.155c0.21,1.062,0.397,2.622-0.424,3.455c-0.247,0.25-2.079,1.562-2.386,0.856
				c0.374-0.226,0.748-0.452,1.122-0.678c0.405,0.396,0.626,0.855,0.661,1.378c0.28,2.006-0.103,4.113-0.07,6.132
				c0.003,0.195,0.971,0.039,0.966-0.259c-0.021-1.257,0.063-2.517,0.1-3.774c0.028-0.955,0.263-2.47-0.358-3.298
				c-1.023-1.363-2.631-1.505-3.36,0.201c-0.659,1.542,1.815,0.824,2.312,0.586c2.195-1.052,2.9-2.356,2.404-4.86
				c-0.053-0.269-0.821,0.047-0.923,0.155c-1.15,1.229-0.636,4.506,1.314,4.619c1.708,0.099,3.495-0.675,1.861-2.391
				c-0.159-0.167-0.687,0.029-0.827,0.141c-0.914,0.732-0.999,2.505-1.19,3.559c-0.288,1.592-0.546,3.245-0.588,4.866
				C68.365,96.974,69.328,96.834,69.335,96.531L69.335,96.531z"/>
		</g>
	</g>
</g>
<g>
	<rect x="17.848" y="43.526" fill="none" width="28.261" height="30.607"/>
	<text transform="matrix(1 0 0 1 17.8477 69.7339)" fill="#00A091" font-family="'Santana'" font-size="36"> 4</text>
</g>
<rect x="89.518" y="43.526" fill-rule="evenodd" clip-rule="evenodd" fill="none" width="28.26" height="30.607"/>
<text transform="matrix(1 0 0 1 89.5176 69.7339)" fill="#00A091" font-family="'Santana'" font-size="36">2</text>
<g>
	<rect x="58.899" y="13.276" fill="none" width="28.26" height="30.607"/>
	<text transform="matrix(1 0 0 1 58.8989 39.4839)" fill="#00A091" font-family="'Santana'" font-size="36">1</text>
</g>
</svg>
